<?xml version="1.0" encoding="UTF-8"?>
<svg data-bbox="0 0 911 231" xmlns="http://www.w3.org/2000/svg" viewBox="0 0 911 231" height="231" width="911" data-type="color">
    <g fill-rule="evenodd">
        <path fill="#003580" d="M911 0v231H0V0h911z" data-color="1"/>
        <path fill="#2FAAE1" d="M805.67 94.404l-1.503 1.926-1.183-2.15c-3.831-7.057-10.413-10.638-19.59-10.638-9.607 0-16.053 5.421-19.044 8.641l-1.965 2.142-.748-2.825c-1.099-4.061-4.683-6.296-10.1-6.296h-7.929l-.09 73.029h18.997V126c0-2.833.345-5.625 1.048-8.543 1.892-7.787 7.07-16.166 15.785-15.325 5.372.657 7.805 4.6 7.805 12.815v43.292h17.912v-32.233c0-3.535.325-6.17 1.112-8.819 1.6-7.432 8.195-15.055 16.599-15.055 6.087 0 9.105 3.286 9.105 12.815v32.613c0 7.228 4.553 10.514 11.708 10.678h7.694l.026-46.618c.228-18.564-8.247-28.08-23.857-28.08-8.572 0-16.468 4.062-21.782 10.863z" data-color="2"/>
        <path fill="#2FAAE1" d="M658.652 121.727c0 21.686 16.91 38.114 39.024 38.114 22.004 0 38.004-15.968 38.004-37.97.13-21.928-16.013-38.357-38.127-38.357-21.951 0-38.901 16.225-38.901 38.213zm39.148 20.22c-10.361 0-17.58-8.326-17.58-20.22 0-11.874 7.219-20.194 17.58-20.194 10.42 0 17.561 8.543 17.561 20.194.163 12.387-6.751 20.273-17.808 20.273l.247-.053z" data-color="2"/>
        <path fill="#2FAAE1" d="M645.065 132.887c-.058.059-8.56 9.114-19.746 9.114-10.199 0-20.495-6.315-20.495-20.424 0-12.19 7.987-20.706 19.415-20.706 3.72 0 7.805 1.314 8.455 3.6l.098.388c1.515 5.258 5.854 5.258 7.154 5.389h10.83v-9.561c0-12.598-15.87-17.172-26.55-17.172-22.842 0-39.402 16.061-39.402 38.18 0 22.343 16.26 38.115 39.025 38.115 19.603 0 30.263-13.018 30.367-13.163l.566-.696-8.566-14.359-1.151 1.295z" data-color="2"/>
        <path fill="#2FAAE1" d="M579 146.5c0 6.904-5.596 12.5-12.5 12.5s-12.5-5.596-12.5-12.5 5.596-12.5 12.5-12.5 12.5 5.596 12.5 12.5z" data-color="2"/>
        <path fill="#FFFFFF" d="M526.418 89.24l-.579 1.116-.956-.834c-3.343-2.925-9.327-6.381-19.044-6.381-19.337 0-32.351 14.674-32.351 36.51 0 21.686 13.658 36.8 32.52 36.8 6.57 0 11.785-1.55 15.903-4.718l1.606-1.202v2.044c0 9.791-6.263 15.193-17.632 15.193-5.529 0-10.55-1.367-13.906-2.596-4.397-1.347-6.966-.237-8.735 4.206l-1.646 4.12-2.315 5.987 1.43.775c7.272 3.943 16.911 5.914 25.367 5.914 17.606 0 36.618-9.114 36.618-34.75l.071-67.219h-7.896c-3.928 0-6.946 2.15-8.455 5.034zm-31.85 29.86c0-4.12 1.034-17.526 14.243-17.526 6.57 0 15.61 1.971 15.61 18.216-.293 15.324-8.332 18.61-14.836 18.61l.32.013c-11.312 0-15.338-9.975-15.338-19.313z" data-color="3"/>
        <path fill="#FFFFFF" d="M442.626 83.299c-10.589 0-17.353 4.757-21.138 8.766l-1.255 1.301-.45-1.755c-1.111-4.31-4.858-6.676-10.51-6.676h-9.086l.052 73.31h19.239v-33.79c0-3.312.423-6.177 1.288-8.792 2.296-7.912 7.512-12.834 15.532-12.834 6.452 0 10.406 3.286 10.406 12.334v31.938c0 7.885 4.553 11.171 12.358 11.145h7.096v-46.184c-.384-18.348-6.654-28.862-23.565-28.862" data-color="3"/>
        <path fill="#FFFFFF" d="M388.363 158.22V96.105c0-7.485-3.539-11.119-10.882-11.119l-8.156-.032.059 56.691h-.059l.059 17.185h18.979" data-color="3"/>
        <path fill="#FFFFFF" d="M391 65.5c0 6.904-5.596 12.5-12.5 12.5S366 72.404 366 65.5 371.596 53 378.5 53 391 58.596 391 65.5z" data-color="3"/>
        <path fill="#FFFFFF" d="M343.803 123.325c-.852-1.623-1.82-2.996-2.862-4.087l-.663-.703.696-.684a29.371 29.371 0 0 0 3.024-3.811l19.356-29.066h-23.499l-14.535 22.737c-.82 1.223-2.485 1.834-4.97 1.834h-5.02V66.56c0-8.602-5.841-12.952-11.571-12.952h-7.714l.013 104.67h19.271v-30.445h3.662c2.374 0 3.903 0 4.553 1.577l11.486 21.686c3.207 5.914 6.504 7.229 12.358 6.96h15.948l-11.884-19.866-7.649-14.865z" data-color="3"/>
        <path fill="#FFFFFF" d="M212.746 121.42c0 21.685 15.61 38.114 37.724 38.114 21.997 0 38.01-15.962 38.01-37.963.156-21.942-15.643-38.371-37.756-38.371-21.952 0-37.978 16.238-37.978 38.22zm37.874 20.213c-10.361 0-17.581-8.313-17.581-20.214 0-11.88 7.22-20.194 17.58-20.194 10.42 0 17.561 8.543 17.561 20.194.163 12.381-7.05 20.267-17.456 20.267l-.104-.053z" data-color="3"/>
        <path fill="#FFFFFF" d="M129.904 121.42c0 21.685 15.61 38.114 37.724 38.114 22.01 0 38.003-15.962 38.003-37.963.123-21.942-16.046-38.371-38.16-38.371-21.938 0-37.567 16.238-37.567 38.22zm37.854 20.213c-10.368 0-17.568-8.313-17.568-20.214 0-11.88 7.2-20.194 17.568-20.194 10.432 0 17.56 8.543 17.56 20.194.15 12.381-6.79 20.267-17.846 20.267l.286-.053z" data-color="3"/>
        <path fill="#FFFFFF" d="M107.543 104.498l2.66-2.293c3.09-2.682 8.273-8.714 8.273-19.143 0-15.955-12.247-25.57-31.2-25.57H64.571C58.95 57.573 53 63.487 53 69.184v89.654h34.699c21.067 0 34.673-12.532 34.673-30.472.007-9.68-4.331-18.222-11.486-22.165l-3.343-1.702zm-35.291-18.57V80.57c0-4.678 1.964-6.913 6.27-7.189h8.611c7.389 0 11.708 4.6 11.708 11.94 0 5.698-3.031 11.14-11.545 11.14H72.252V85.926zm0 53.418v-18.912c0-4.35 1.672-6.605 5.36-7.117h11.48c8.194 0 13.658 5.257 13.658 13.8-.176 8.654-5.204 12.23-13.659 12.23H72.252z" data-color="3"/>
    </g>
</svg>
