<?xml version="1.0" encoding="UTF-8"?>
<svg preserveAspectRatio="xMidYMid meet" id="comp-koy7von6svgcontent" data-bbox="48.077 69.018 103.844 61.967" xmlns="http://www.w3.org/2000/svg" width="200" height="200" viewBox="48.077 69.018 103.844 61.967" data-type="color" role="img">
    <g>
        <path fill="#000001" d="M130.956 89.052c-2.824 0-5.516.569-7.977 1.586l-4.752-8.918 4.782-8.956h7.024v2.495a1.678 1.678 0 0 0 3.356 0v-4.173c0-.927-.752-1.678-1.678-1.678h-9.709c-.62 0-1.189.341-1.48.887l-5.144 9.633H85.714l-4.277-7.554h7.641a1.678 1.678 0 0 0 0-3.356h-10.52a1.678 1.678 0 0 0-1.461 2.505l5.685 10.041-5.016 9.414a20.805 20.805 0 0 0-8.723-1.925c-11.561 0-20.966 9.406-20.966 20.966s9.405 20.965 20.966 20.965c10.917 0 19.902-8.39 20.869-19.059h11.179c.62 0 1.189-.342 1.48-.887l13.751-25.751 3.673 6.894c-5.991 3.695-10.006 10.299-10.006 17.839 0 11.56 9.405 20.965 20.966 20.965s20.966-9.405 20.966-20.965-9.404-20.968-20.965-20.968zm-46.214-4.028l13.33 23.543h-8.136a20.963 20.963 0 0 0-9.233-15.963l4.039-7.58zm1.838 23.543H72.197l6.914-12.976c4.179 2.925 7.028 7.611 7.469 12.976zm-17.536 19.059c-9.71 0-17.61-7.899-17.61-17.608 0-9.711 7.9-17.61 17.61-17.61 2.545 0 4.958.554 7.145 1.529l-8.269 15.518a1.677 1.677 0 0 0 1.481 2.468h17.145c-.954 8.816-8.437 15.703-17.502 15.703zm31.937-20.735L87.614 83.284h25.972l-12.605 23.607zm29.975 20.735c-9.709 0-17.609-7.899-17.609-17.608 0-6.261 3.293-11.753 8.228-14.877l8.59 16.121a1.678 1.678 0 1 0 2.962-1.579l-8.557-16.058a17.492 17.492 0 0 1 6.385-1.217c9.709 0 17.609 7.899 17.609 17.61.001 9.709-7.898 17.608-17.608 17.608z" data-color="1"></path>
    </g>
</svg>
