<?xml version="1.0" encoding="UTF-8"?>
<svg preserveAspectRatio="none" id="comp-koy8p6zisvgcontent" data-bbox="20.2 39.999 159.598 119.999" xmlns="http://www.w3.org/2000/svg" width="200" height="200" viewBox="20.2 39.999 159.598 119.999" data-type="shape" role="img">
    <g>
        <path d="M179.411 156.436l-16.117-23.999-.007-.01-15.34-22.842-.003-.005-15.342-22.844-.004-.006-30.685-45.693a.03.03 0 00-.005-.007l-.012-.018c-.01-.015-.024-.025-.035-.04a2.27 2.27 0 00-.296-.341c-.043-.041-.09-.075-.136-.113-.053-.043-.1-.092-.157-.13-.039-.026-.081-.041-.121-.065a2.245 2.245 0 00-.496-.216c-.05-.015-.099-.033-.15-.045a2.282 2.282 0 00-.505-.063h-.003c-.172 0-.341.025-.508.063-.051.012-.099.029-.148.044a2.286 2.286 0 00-.787.419c-.038.031-.078.058-.113.091a2.249 2.249 0 00-.342.395L20.583 156.436a2.296 2.296 0 00-.248.505c-.017.048-.029.095-.042.143-.04.14-.066.28-.079.422-.004.045-.011.089-.013.134-.005.182.008.364.045.542.006.03.019.057.026.087a2.3 2.3 0 00.164.444c.012.024.015.051.027.074.011.021.03.037.042.058.083.145.18.282.294.407.014.015.024.032.038.046.11.114.232.22.37.312.016.01.034.013.049.023.132.084.275.144.421.199.058.022.111.056.17.073.187.054.381.08.581.085.018 0 .034.008.052.008h155.029a2.289 2.289 0 001.902-3.562zm-122.793-1.013l-14.921-22.218.011-.017 12.578-18.729 12.589 18.745-7.965 11.86a2.288 2.288 0 103.798 2.551l6.922-10.307 12.165 18.114H56.618zm-5.512 0h-24.33l12.165-18.114 12.165 18.114zm21.232-59.781l9.881 14.714-12.589 18.745-12.588-18.745 27.934-41.595 12.588 18.745-12.588 18.745-8.838-13.161a2.29 2.29 0 00-3.8 2.552zm12.638 18.818l12.588 18.745-12.588 18.745-12.589-18.745 12.589-18.745zm2.755-4.104L100.32 91.61l12.589 18.745L100.32 129.1l-12.589-18.744zm15.346-22.85l8.788-13.086a2.288 2.288 0 00-3.799-2.551l-7.745 11.533-12.333-18.364a2.288 2.288 0 00-.283-.341l12.292-18.304 27.934 41.595-12.266 18.264-12.588-18.746zm-2.757 49.803l12.165 18.114h-24.33l12.165-18.114zm15.345 14.641l-12.588-18.745 12.588-18.745 12.589 18.745-12.589 18.745zm15.345-14.641l12.165 18.114h-24.33l12.165-18.114zm-12.589-26.953l12.266-18.264 12.589 18.745-12.266 18.264-12.589-18.745zm30.182 45.067a2.3 2.3 0 00-.241-.484l-14.597-21.735 12.266-18.264 12.589 18.746-8.655 12.888a2.288 2.288 0 103.799 2.551l7.612-11.335 11.842 17.633h-24.615z"></path>
    </g>
</svg>
