<?xml version="1.0" encoding="UTF-8"?>
<svg preserveAspectRatio="xMidYMid meet" id="comp-kotwbidwsvgcontent" data-bbox="39.5 43.501 121 112.999" viewBox="39.5 43.501 121 112.999" height="200" width="200" xmlns="http://www.w3.org/2000/svg" data-type="color" role="img">
    <g>
        <path d="M63.291 102.386a13.84 13.84 0 0 1-1.76-11.214c1.939-7.122 9.09-11.449 16.253-10.012.303.061.172-.764.172-.764 0-7.84 6.384-14.196 14.26-14.196 2.928 0 5.601 1.209 7.554 2.429 2.017 1.261 4.586 1.163 6.576-.14l.058-.038c2.27-1.475 5.018-2.252 7.929-2.252 8.293 0 15.016 6.693 15.016 14.948 8.293 0 15.016 6.693 15.016 14.948 0 2.436-.585 4.736-1.624 6.768" fill="#D6EADE" data-color="1"></path>
        <path d="M149.434 101.103h-3.296a17.47 17.47 0 0 0 .737-5.005c0-8.826-6.618-16.144-15.173-17.293-1.154-8.517-8.504-15.105-17.37-15.105-.979 0-1.939.084-2.878.234a8.623 8.623 0 0 0 .224-1.926c0-3.799-2.466-7.029-5.886-8.207a8.406 8.406 0 0 1 4.861-5.489 2.497 2.497 0 0 0 1.355-3.27 2.517 2.517 0 0 0-3.285-1.349 13.427 13.427 0 0 0-8.059 9.937c-3.707 1.003-6.444 4.374-6.444 8.377 0 .644.076 1.269.21 1.873a13.977 13.977 0 0 0-2.215-.18c-8.568 0-15.655 6.428-16.652 14.694-7.483-.244-14.434 4.692-16.458 12.124-.961 3.528-.683 7.252.703 10.585h-2.601c-.779 0-1.514.36-1.99.974a2.493 2.493 0 0 0-.44 2.164l13.326 50.395a2.51 2.51 0 0 0 2.43 1.864h65.574a2.512 2.512 0 0 0 2.43-1.864l13.326-50.395a2.494 2.494 0 0 0-.44-2.164 2.513 2.513 0 0 0-1.989-.974zM102.949 58.32c2.042 0 3.704 1.654 3.704 3.687s-1.662 3.687-3.704 3.687c-2.042 0-3.704-1.654-3.704-3.687s1.662-3.687 3.704-3.687zM63.956 91.827c1.573-5.774 7.4-9.376 13.284-8.222.052.018.099.044.153.058a12.06 12.06 0 0 1 5.273 3.009 2.517 2.517 0 0 0 1.901.711 2.517 2.517 0 0 0 1.808-.919 12.1 12.1 0 0 1 12.506-4.023 2.512 2.512 0 0 0 3.083-1.76 2.5 2.5 0 0 0-1.768-3.069 17.148 17.148 0 0 0-15.965 3.848 17.14 17.14 0 0 0-3.71-2.012c.488-6.005 5.54-10.747 11.695-10.747 2.434 0 4.724 1.113 6.218 2.046 2.808 1.755 6.455 1.689 9.343-.201 1.857-1.207 4.124-1.845 6.555-1.845 6.894 0 12.503 5.584 12.503 12.447a2.507 2.507 0 0 0 2.513 2.501c6.894 0 12.503 5.584 12.503 12.447 0 1.752-.375 3.428-1.075 5.005H65.439c-.015-.025-.023-.051-.039-.076a11.396 11.396 0 0 1-1.444-9.198zm70.215 59.671h-9.213l.315-4.254a2.505 2.505 0 0 0-2.321-2.679 2.509 2.509 0 0 0-2.691 2.311l-.342 4.622h-14.085v-21.472a2.507 2.507 0 0 0-2.513-2.501 2.507 2.507 0 0 0-2.513 2.501v21.472H85.977l-.376-5.072a2.511 2.511 0 0 0-2.691-2.311 2.505 2.505 0 0 0-2.321 2.679l.349 4.704h-8.467l-12.004-45.392h17.11v.011l2.123 28.654a2.509 2.509 0 0 0 2.69 2.311 2.505 2.505 0 0 0 2.321-2.679l-2.096-28.296h63.56l-12.004 45.391z" fill="#57BBB9" data-color="2"></path>
        <path d="M103.321 122.76a2.507 2.507 0 0 0 2.513-2.501v-6.535a2.507 2.507 0 0 0-2.513-2.501 2.507 2.507 0 0 0-2.513 2.501v6.535a2.507 2.507 0 0 0 2.513 2.501z" fill="#57BBB9" data-color="2"></path>
        <path d="M123.191 141.331a2.508 2.508 0 0 0 2.69-2.311l1.495-20.184a2.505 2.505 0 0 0-2.321-2.679c-1.397-.092-2.589.933-2.691 2.311l-1.495 20.184a2.506 2.506 0 0 0 2.322 2.679z" fill="#57BBB9" data-color="2"></path>
        <path fill="#57BBB9" d="M56.331 144.279a2.265 2.265 0 0 1-2.27 2.26 2.265 2.265 0 0 1-2.27-2.26 2.265 2.265 0 0 1 2.27-2.26 2.265 2.265 0 0 1 2.27 2.26z" data-color="2"></path>
        <path fill="#57BBB9" d="M44.04 138.402a2.265 2.265 0 0 1-2.27 2.26 2.265 2.265 0 0 1-2.27-2.26 2.265 2.265 0 0 1 2.27-2.26 2.265 2.265 0 0 1 2.27 2.26z" data-color="2"></path>
        <path fill="#57BBB9" d="M160.5 122.978a2.265 2.265 0 0 1-2.27 2.26 2.265 2.265 0 0 1-2.27-2.26 2.265 2.265 0 0 1 2.27-2.26 2.265 2.265 0 0 1 2.27 2.26z" data-color="2"></path>
    </g>
</svg>
