<?xml version="1.0" encoding="UTF-8"?>
<svg preserveAspectRatio="xMidYMid meet" id="comp-kotw9xcwsvgcontent" data-bbox="45.02 39.275 109.979 121.45" xmlns="http://www.w3.org/2000/svg" width="200" height="200" viewBox="45.02 39.275 109.979 121.45" data-type="color" role="img">
    <g>
        <path fill="#2B2E83" d="M71.553 81.983a3.75 3.75 0 0 0-5.039-.52c-.99.724-1.514 1.93-1.514 3.157v39.319l-19.429 31.045a3.75 3.75 0 0 0 6.357 3.979L65 138.078v18.819c0 1.626.991 3.152 2.543 3.639 2.582.81 4.957-1.1 4.957-3.561V94.338l13.325 14.991c1.222 1.375 3.28 1.824 4.85.865a3.752 3.752 0 0 0 .877-5.711l-19.999-22.5z" data-color="1"></path>
        <path fill="#2B2E83" d="M69.475 73.224c9.36 0 16.975-7.615 16.975-16.974 0-9.36-7.615-16.975-16.975-16.975S52.5 46.89 52.5 56.251c0 9.359 7.615 16.973 16.975 16.973zm0-26.448c5.225 0 9.475 4.25 9.475 9.475 0 5.223-4.25 9.474-9.475 9.474S60 61.474 60 56.251c0-5.225 4.25-9.475 9.475-9.475z" data-color="1"></path>
        <path fill="#2B2E83" d="M131.975 73.224c9.36 0 16.975-7.615 16.975-16.974 0-9.36-7.615-16.975-16.975-16.975S115 46.89 115 56.251c0 9.359 7.615 16.973 16.975 16.973zm0-26.448c5.225 0 9.475 4.25 9.475 9.475 0 5.223-4.25 9.474-9.475 9.474s-9.475-4.25-9.475-9.474c0-5.225 4.25-9.475 9.475-9.475z" data-color="1"></path>
        <path fill="#2B2E83" d="M154.429 154.985L135 123.94V84.474a3.75 3.75 0 0 0-6.553-2.492l-20 22.5a3.75 3.75 0 0 0 5.605 4.983L127.5 94.338v62.637c0 2.07 1.68 3.75 3.75 3.75s3.75-1.68 3.75-3.75v-18.897l13.071 20.887a3.743 3.743 0 0 0 3.181 1.76 3.752 3.752 0 0 0 3.177-5.74z" data-color="1"></path>
    </g>
</svg>
