<?xml version="1.0" encoding="UTF-8"?>
<svg preserveAspectRatio="xMidYMid meet" id="comp-kotwpfrlsvgcontent" data-bbox="56.435 53.548 87.129 92.904" viewBox="56.435 53.548 87.129 92.904" height="200" width="200" xmlns="http://www.w3.org/2000/svg" data-type="color" role="img">
    <g>
        <path d="M75.56 101.853c-2.246 2.392-2.104 5.698-2.103 5.732l.051.993-1.987.11-.057-.993c-.009-.169-.203-4.159 2.622-7.189 1.964-2.106 4.853-3.196 8.586-3.243l.168-.001c5.348 0 10.894 3.203 16.258 6.3 4.894 2.826 9.517 5.494 13.481 5.494h.03c9.08-.03 13.495-2.823 13.5-8.539l.001-.998 1.996.003-.001.998c-.004 4.782-2.694 10.491-15.492 10.533h-.035c-4.5 0-9.346-2.798-14.479-5.762-5.137-2.966-10.447-6.032-15.26-6.032l-.142.001c-3.158.039-5.559.912-7.137 2.593zm38.011-22.684h-1.996v25.067h1.996V79.169zm15.045 16.182l-.81-1.148c-.412-.584-10.112-14.337-12.442-18.805a14.955 14.955 0 0 1-1.57-5.061L86.001 83.92v9.224h-1.996V83.92L58.431 71.421v59.935L81.7 142.728l2.305 1.126v-40.173h1.996v40.199l25.574-12.524v-16.14h1.996v16.14l25.574 12.498V84.326h1.996v61.127a.999.999 0 0 1-1.436.897l-27.131-13.26-26.786 13.118-.058-.118c-.064.073-.114.156-.198.209a.993.993 0 0 1-.967.051l-5.534-2.705-22.036-10.769a.999.999 0 0 1-.56-.897V69.823a.999.999 0 0 1 1.436-.897l27.132 13.26 28.029-13.698.735 1.505a15 15 0 0 1-.091-1.499c0-8.242 6.704-14.946 14.944-14.946s14.944 6.704 14.944 14.946c0 2.285-.503 4.48-1.495 6.522-2.272 4.676-12.215 18.601-12.637 19.192l-.816 1.143zm.01-3.455c2.473-3.498 9.818-13.986 11.648-17.752a12.823 12.823 0 0 0 1.295-5.65c0-7.141-5.809-12.949-12.948-12.949s-12.948 5.809-12.948 12.949c0 2.112.491 4.124 1.461 5.981 1.884 3.614 9.059 13.946 11.492 17.421zm-.005-16.721a6.689 6.689 0 0 1-6.682-6.681 6.689 6.689 0 0 1 6.682-6.682 6.689 6.689 0 0 1 6.682 6.682 6.689 6.689 0 0 1-6.682 6.681zm4.685-6.681a4.691 4.691 0 0 0-4.686-4.686 4.691 4.691 0 0 0-4.686 4.686 4.69 4.69 0 0 0 4.686 4.684 4.689 4.689 0 0 0 4.686-4.684z" fill="#000010" data-color="1"></path>
        <path d="M128.621 55.545c-7.139 0-12.948 5.809-12.948 12.949 0 2.112.491 4.124 1.461 5.981 1.885 3.613 9.059 13.945 11.492 17.42 2.473-3.498 9.818-13.986 11.648-17.752a12.823 12.823 0 0 0 1.295-5.65c0-7.139-5.809-12.948-12.948-12.948zm0 19.63a6.689 6.689 0 0 1-6.682-6.681 6.689 6.689 0 0 1 6.682-6.682 6.689 6.689 0 0 1 6.682 6.682 6.689 6.689 0 0 1-6.682 6.681z" fill="#E60000" data-color="2"></path>
        <path fill="#E60000" d="M75.072 112.067l-3.198 3.197-3.198-3.197-1.412 1.411 3.198 3.198-3.198 3.197 1.412 1.412 3.198-3.198 3.198 3.198 1.411-1.412-3.198-3.197 3.198-3.198-1.411-1.411z" data-color="2"></path>
    </g>
</svg>
